<svg xmlns="http://www.w3.org/2000/svg" width="355" height="355" fill="none"><path fill="#000" d="M281.444 266.392c-.284-43.168-28.968-79.804-68.444-91.732 14.2-9.088 23.856-24.992 23.856-43.168 0-28.116-22.72-51.12-51.12-51.12s-51.12 22.72-51.12 51.12c0 18.176 9.372 33.796 23.572 42.884-39.76 11.644-69.012 48.28-69.012 92.016 0 3.408 2.84 6.248 6.248 6.248H274.912c3.692 0 6.532-2.84 6.532-6.248zm-134.048-134.9c0-21.016 17.04-38.34 38.34-38.34 21.3 0 38.34 17.04 38.34 38.34 0 21.016-17.04 38.34-38.34 38.34-21.3 0-38.34-17.04-38.34-38.34zM102.24 259.86c3.408-42.884 39.476-76.396 83.212-76.396 43.736 0 79.52 33.796 83.212 76.396H102.24z"/><path fill="#fff" d="M31.524 204.48c-.852 0-1.42-.568-1.42-1.42v-65.888c0-.852.568-1.42 1.42-1.42h99.968c.852 0 1.42.568 1.42 1.42v65.604c0 .852-.568 1.42-1.42 1.42H31.524v.284z"/><path fill="#000" d="M128.652 140.012v59.924H34.648v-59.924h94.004zm2.84-8.52H31.524c-3.124 0-5.68 2.556-5.68 5.68v65.604c0 3.124 2.556 5.68 5.68 5.68h99.968c3.124 0 5.68-2.556 5.68-5.68v-65.604c0-3.124-2.556-5.68-5.68-5.68z"/><path fill="#fff" d="M192.836 241.116c-.284 0-.852-.284-.852-.852v-77.816c0-.284.284-.852.852-.852h117.008c.284 0 .852.284.852.852v77.816c0 .284-.284.852-.852.852H192.836z"/><path fill="#000" d="M305.868 166.708v69.58H197.096v-69.58h108.772zm3.976-9.94H192.836c-3.124 0-5.68 2.556-5.68 5.68v77.816c0 3.124 2.556 5.68 5.68 5.68h117.008c3.124 0 5.68-2.556 5.68-5.68v-77.816c0-3.124-2.556-5.68-5.68-5.68z"/><path fill="#000" d="M211.011 242.252h7.1c7.1-10.508 19.312-17.608 32.944-17.608 13.632 0 25.844 7.1 32.944 17.608h7.1c-5.68-10.508-15.336-18.46-26.98-21.868 6.816-4.26 11.36-11.928 11.36-20.732 0-13.632-11.076-24.424-24.424-24.424-13.632 0-24.424 11.076-24.424 24.424 0 8.52 4.544 16.188 11.36 20.448-11.36 3.692-21.3 11.644-26.98 22.152zm22.152-42.6a18.423 18.423 0 0 1 18.46-18.46 18.423 18.423 0 0 1 18.46 18.46 18.423 18.423 0 0 1-18.46 18.46 18.423 18.423 0 0 1-18.46-18.46zM99.4 152.224c-2.556 2.556-7.668 2.556-10.224 0-3.976-3.692-11.36-3.692-15.336 0-2.556 2.556-7.668 2.556-10.224 0-3.976-3.692-11.36-3.692-15.336 0-.852.852-.852 1.988 0 2.556.852.568 1.988.852 2.556 0 2.556-2.556 7.668-2.556 10.224 0 3.976 3.692 11.36 3.692 15.336 0 2.556-2.556 7.668-2.556 10.224 0 1.988 1.988 4.828 2.84 7.668 2.84s5.68-.852 7.668-2.84c2.556-2.556 7.668-2.556 10.224 0 .852.852 1.988.568 2.556 0 .852-.852.568-1.988 0-2.556-3.976-3.976-11.644-3.976-15.336 0zM99.4 185.168c-2.556 2.556-7.668 2.556-10.224 0-3.976-3.692-11.36-3.692-15.336 0-2.556 2.556-7.668 2.556-10.224 0-3.976-3.692-11.36-3.692-15.336 0-.852.852-.852 1.988 0 2.556.852.852 1.988.852 2.556 0 2.556-2.556 7.668-2.556 10.224 0 3.976 3.692 11.36 3.692 15.336 0 2.556-2.556 7.668-2.556 10.224 0 1.988 1.988 4.828 2.84 7.668 2.84s5.68-.852 7.668-2.84c2.556-2.556 7.668-2.556 10.224 0 .852.852 1.988.568 2.556 0 .852-.852.568-1.988 0-2.556-3.976-3.976-11.644-3.976-15.336 0zM99.4 170.116c-2.556 2.556-7.668 2.556-10.224 0-3.976-3.692-11.36-3.692-15.336 0-2.556 2.556-7.668 2.556-10.224 0-3.976-3.692-11.36-3.692-15.336 0-.852.852-.852 1.988 0 2.556.852.852 1.988.852 2.556 0 2.556-2.556 7.668-2.556 10.224 0 3.976 3.692 11.36 3.692 15.336 0 2.556-2.556 7.668-2.556 10.224 0 1.988 1.988 4.828 2.84 7.668 2.84s5.68-.852 7.668-2.84c2.556-2.556 7.668-2.556 10.224 0 .852.852 1.988.852 2.556 0 .852-.852.568-1.988 0-2.556-3.976-3.976-11.644-3.976-15.336 0z"/><path fill="#fff" d="M72.988 244.808c-12.496 0-22.72-10.224-22.72-22.72 0-12.496 10.224-22.72 22.72-22.72 12.496 0 22.72 10.224 22.72 22.72 0 12.496-10.224 22.72-22.72 22.72z"/><path fill="#000" d="M72.988 205.332c9.088 0 16.472 7.384 16.472 16.472 0 9.088-7.384 16.472-16.472 16.472-9.088 0-16.472-7.384-16.472-16.472-.284-8.804 7.384-16.472 16.472-16.472zm0-11.928a28.605 28.605 0 0 0-28.684 28.684 28.605 28.605 0 0 0 28.684 28.684 28.604 28.604 0 0 0 28.684-28.684 28.604 28.604 0 0 0-28.684-28.684z"/><path fill="#fff" d="M298.484 268.38c-12.496 0-22.72-10.224-22.72-22.72 0-12.496 10.224-22.72 22.72-22.72 12.496 0 22.72 10.224 22.72 22.72 0 12.496-10.224 22.72-22.72 22.72z"/><path fill="#000" d="M298.484 228.904c9.088 0 16.472 7.384 16.472 16.472 0 9.088-7.384 16.472-16.472 16.472-9.088 0-16.472-7.384-16.472-16.472-.284-8.804 7.384-16.472 16.472-16.472zm0-11.928A28.605 28.605 0 0 0 269.8 245.66a28.605 28.605 0 0 0 28.684 28.684 28.605 28.605 0 0 0 28.684-28.684 28.605 28.605 0 0 0-28.684-28.684z"/></svg>