<svg xmlns="http://www.w3.org/2000/svg" width="157" height="48" fill="none"><path fill="#fff" d="M3.96 10.775C8.177 4.31 15.511 0 23.82 0c13.175 0 23.884 10.71 23.884 23.967 0 3.2-.65 6.27-1.753 9.078L33.88 23.184c3.505-3.266 4.414-7.837 2.402-12.343-2.596-5.878-8.373-7.902-14.02-5.16l-7.204 3.331L27.39 37.616l-2.92 1.372c-5.193 2.22-7.919-.523-9.217-3.266-.844-1.893-.973-3.787-.324-5.616.778-2.024 2.142-3.657 5.451-5.028L3.96 10.775zm23.364 12.409c2.79-1.11 4.673-2.94 5.452-5.029.649-1.829.584-3.722-.325-5.616-1.298-2.743-4.153-5.747-9.216-3.266l-2.92 1.372 12.331 28.604-7.204 3.33c-6.685 2.417-11.423.719-14.02-5.159-2.011-4.506-1.102-9.077 2.402-12.342L1.687 15.15C.584 17.894 0 20.833 0 23.967 0 37.225 10.644 48 23.82 48c8.242 0 15.511-4.18 19.795-10.58l-16.29-14.236zM59.776 18.024h.519c2.077 0 3.894-.653 5.127-1.763 1.103-.98 1.623-2.35 1.558-3.787-.065-2.22-1.168-4.899-5.777-4.899-.454 0-1.882 0-2.596.066v22.596h-3.44V5.094h.455c.194 0 4.478-.13 5.97-.13 5.453 0 8.698 2.807 8.763 7.51.065 3.591-2.077 6.334-5.712 7.51l7.14 10.449-3.895-.131-8.112-12.277zM106.311 30.367V19.853c0-1.894-.519-5.094-3.894-5.094-2.142 0-3.635 1.567-4.154 3.135-.195.457-.195.914-.195 1.502v11.037h-3.634V4.57h3.634v9.862c.454-.719 1.233-1.437 2.077-1.894 1.103-.653 2.272-.98 3.44-.98 2.985 0 6.425 2.09 6.425 7.902v10.906h-3.699zM119.291 30.498c-3.894 0-5.841-3.461-5.841-6.008 0-4.441 4.998-8.425 10.839-6.008 0-2.09-1.038-4.31-3.44-4.245-1.882.065-3.634.849-5.062 1.828l-.065-2.873c1.233-.719 2.856-1.306 4.932-1.437 5.777-.457 7.27 3.918 7.27 7.38v6.726c0 1.764.064 3.2.259 4.245l.065.261h-3.375l-.26-2.024c-1.103 1.437-3.115 2.155-5.322 2.155zm-2.336-5.943c0 2.155 1.817 3.33 3.18 3.33 2.272 0 4.284-1.501 4.284-4.179V21.16c-3.375-2.155-7.464-.065-7.464 3.396zM136.166 12.016h-3.634v18.351h3.634v-18.35zM134.284 9.404c-1.233 0-2.142-.98-2.142-2.22 0-1.306.974-2.22 2.207-2.22 1.298 0 2.207.914 2.207 2.22 0 .587-.195 1.11-.585 1.567-.389.392-.973.653-1.687.653zM153.106 30.367v-10.58c0-2.35-.649-5.093-3.894-5.093-2.207 0-3.635 1.567-4.154 3.2-.13.392-.195.914-.195 1.437v10.971h-3.634V17.045c0-2.025-.065-3.461-.13-4.833v-.196h3.31l.13 2.613c.843-1.502 2.855-3.07 5.776-3.07 1.103 0 6.49.392 6.49 7.837v10.906h-3.699v.065zM90.41 26.58c-1.298.653-3.31 1.045-5.193 1.045-5.192 0-9.605-3.854-9.605-9.992 0-6.204 4.543-9.927 9.735-9.927 1.818 0 3.57.392 4.933 1.045l.13.065v-3.46c-.974-.327-2.661-.785-5.128-.785-7.269 0-13.435 5.16-13.435 13.127 0 7.771 5.063 12.996 12.786 12.996 2.532 0 4.544-.392 5.842-.85V26.58h-.065zM62.437 44.408c-.455.261-1.428.457-2.661.457-2.856 0-4.998-1.828-4.998-5.159 0-3.2 2.142-5.355 5.322-5.355 1.233 0 2.077.261 2.401.457l-.324 1.11a4.58 4.58 0 0 0-2.012-.457c-2.401 0-3.96 1.502-3.96 4.18 0 2.481 1.429 4.114 3.895 4.114.779 0 1.623-.196 2.142-.392l.195 1.045zM74.249 39.51c0 3.527-2.142 5.355-4.738 5.355-2.661 0-4.543-2.09-4.543-5.159 0-3.265 2.012-5.355 4.738-5.355 2.726 0 4.543 2.155 4.543 5.16zm-7.853.196c0 2.155 1.168 4.114 3.245 4.114s3.245-1.894 3.245-4.245c0-2.024-1.038-4.18-3.245-4.18-2.142.066-3.245 2.09-3.245 4.311zM85.931 39.575c0 3.527-2.141 5.356-4.737 5.356-2.662 0-4.544-2.09-4.544-5.16 0-3.265 2.012-5.355 4.738-5.355 2.791 0 4.543 2.09 4.543 5.16zm-7.853.131c0 2.155 1.168 4.114 3.245 4.114s3.245-1.894 3.245-4.245c0-2.024-1.038-4.18-3.245-4.18-2.141.066-3.245 2.09-3.245 4.311zM89.242 34.678c.648-.131 1.427-.196 2.53-.196 1.299 0 2.272.326 2.856.849.585.457.909 1.24.909 2.155 0 .914-.26 1.632-.779 2.155-.714.718-1.817 1.11-3.115 1.11-.39 0-.779 0-1.039-.065V44.8h-1.298l-.064-10.122zm1.297 4.898c.26.065.65.13 1.104.13 1.558 0 2.531-.784 2.531-2.155 0-1.371-.974-2.025-2.401-2.025-.584 0-1.039.066-1.233.131v3.919zM103.78 39.967h-3.895v3.723h4.349v1.045h-5.711l.065-10.188h5.451v1.11h-4.154v3.265h3.895v1.045zM118.902 41.535l-1.038 3.2h-1.363l3.439-10.188h1.558l3.44 10.188h-1.428l-1.103-3.2h-3.505zm3.31-.98l-.973-2.939c-.195-.653-.39-1.24-.52-1.894-.13.588-.324 1.241-.519 1.829l-.973 2.939 2.985.065zM128.832 35.722h-3.115v-1.11h7.529v1.11h-3.116V44.8h-1.298v-9.078zM137.205 34.612h-1.298V44.8h1.298V34.612zM143.306 44.8l-3.311-10.188h1.428l1.558 5.029c.454 1.371.779 2.612 1.103 3.788.26-1.176.714-2.482 1.169-3.788l1.687-5.029h1.428L144.733 44.8h-1.427zM156.546 40.033h-3.959v3.657H157v1.11h-5.711V34.612h5.516v1.11h-4.218v3.2h3.959v1.11zM111.828 40.098c2.076-.392 2.661-1.633 2.661-2.873 0-.784-.26-1.503-.779-1.96-.649-.587-1.558-.849-2.921-.849-.908 0-1.882.066-2.531.196V44.67h1.298v-9.143c.195-.065.649-.13 1.298-.13 1.363 0 2.337.588 2.337 1.894 0 1.175-.909 1.959-2.272 1.959h-.714l3.31 5.42h1.363l-3.05-4.571z"/></svg>