<svg xmlns="http://www.w3.org/2000/svg" width="48" height="48" fill="none"><path fill="#fff" d="M3.984 10.775A23.906 23.906 0 0 1 23.967 0C37.225 0 48 10.71 48 23.967c0 3.2-.653 6.27-1.763 9.078L34.09 23.184c3.526-3.266 4.44-7.837 2.416-12.343-2.612-5.878-8.424-7.902-14.106-5.16l-7.249 3.331 12.408 28.604-2.939 1.372c-5.224 2.22-7.967-.523-9.273-3.266-.849-1.893-.98-3.787-.327-5.616.784-2.024 2.155-3.657 5.486-5.028L3.984 10.775zm23.51 12.409c2.808-1.11 4.702-2.94 5.486-5.029.653-1.829.587-3.722-.327-5.616-1.306-2.743-4.18-5.747-9.273-3.266l-2.94 1.372L32.85 39.249l-7.249 3.33c-6.727 2.417-11.494.719-14.106-5.159-2.025-4.506-1.11-9.077 2.416-12.342L1.698 15.15A23.293 23.293 0 0 0 0 23.967C0 37.225 10.71 48 23.967 48a23.95 23.95 0 0 0 19.919-10.58L27.494 23.184z"/></svg>